<?xml version="1.0" encoding="UTF-8"?>
<svg version="1.1" xmlns="http://www.w3.org/2000/svg" width="696" height="695">
<path d="M0 0 C6.14894555 5.13311097 11.39662425 11.22394353 16.671875 17.23046875 C17.64060547 18.33261719 17.64060547 18.33261719 18.62890625 19.45703125 C19.65716322 20.63887597 20.6819145 21.82378 21.703125 23.01171875 C24.62979943 26.31003438 27.65554014 29.51424217 30.671875 32.73046875 C34.79855427 37.13118949 38.88735794 41.54229548 42.8125 46.125 C44.41974069 47.94496372 46.05743568 49.72189337 47.71875 51.4921875 C48.53931885 52.36883057 48.53931885 52.36883057 49.37646484 53.26318359 C50.47167523 54.43010609 51.57083409 55.59333802 52.67431641 56.75244141 C54.99571208 59.22884521 56.58511973 60.97020293 57.671875 64.23046875 C58.331875 64.09769531 58.991875 63.96492188 59.671875 63.828125 C79.77403886 60.24219212 107.95935914 57.65963013 127.671875 64.23046875 C127.93613281 63.6375 128.20039063 63.04453125 128.47265625 62.43359375 C129.71557925 60.15017821 130.97589146 58.75620152 132.859375 56.98046875 C135.30785756 54.60222954 137.63258553 52.19247416 139.859375 49.60546875 C143.01269838 45.94903085 146.26458303 42.39560749 149.546875 38.85546875 C153.84484097 34.21831195 158.09815507 29.54593381 162.31640625 24.8359375 C165.65545743 21.14249282 169.0411684 17.49257468 172.43701172 13.85131836 C175.01359569 11.07733148 177.46503009 8.27878716 179.796875 5.29296875 C184.38338008 -0.19714629 191.65151699 -4.27084234 198.7265625 -5.1484375 C211.35228159 -5.75519496 221.25520801 -1.84903456 232.671875 3.23046875 C233.49655273 3.59382324 234.32123047 3.95717773 235.17089844 4.33154297 C311.21662008 38.19923379 311.21662008 38.19923379 323.90234375 67.0390625 C328.80533431 81.00138586 322.12262463 95.33488409 317.8203125 108.69921875 C317.35580529 110.15210492 316.89167048 111.6051102 316.42788696 113.05822754 C315.21828036 116.84531988 314.00441679 120.63103266 312.78936768 124.41638184 C310.83709795 130.50091568 308.89133168 136.58753181 306.94575882 142.67420959 C306.26853976 144.79069329 305.58942275 146.90656053 304.91000366 149.02233887 C304.4951374 150.31761388 304.08030985 151.61290129 303.66552734 152.90820312 C303.12283707 154.59931213 303.12283707 154.59931213 302.56918335 156.32458496 C302.27307159 157.28352661 301.97695984 158.24246826 301.671875 159.23046875 C301.42466705 159.9514978 301.17745911 160.67252686 300.92276001 161.41540527 C300.43516596 164.94297414 303.53062461 167.8236558 305.546875 170.54296875 C306.57756811 171.9885031 307.60485268 173.4364732 308.62890625 174.88671875 C309.14533691 175.61632812 309.66176758 176.3459375 310.19384766 177.09765625 C317.12726803 187.10267118 322.78939155 197.94692332 328.41015625 208.72265625 C329.00292358 209.83193481 329.00292358 209.83193481 329.60766602 210.96362305 C330.671875 213.23046875 330.671875 213.23046875 331.32788086 215.66333008 C332.12414934 218.37053234 332.83696507 220.07175119 334.671875 222.23046875 C339.4635983 224.39565708 344.47268 225.22792684 349.609375 226.16796875 C351.1427088 226.47991811 352.6751693 226.79618671 354.20678711 227.11645508 C357.5391157 227.80859863 360.8746667 228.48049517 364.21386719 229.13867188 C373.08359455 230.89800335 381.91651357 232.82898925 390.74832153 234.76834106 C393.68414861 235.4070418 396.62365274 236.02582545 399.56420898 236.64233398 C424.06498571 241.87980098 424.06498571 241.87980098 431.671875 252.23046875 C435.85564065 258.72896035 436.83227191 265.48921056 437.859375 273.04296875 C438.02373047 274.15478516 438.18808594 275.26660156 438.35742188 276.41210938 C439.89384647 287.04267471 440.82553315 297.55087329 440.875 308.29296875 C440.88187836 309.31514999 440.88875671 310.33733124 440.89584351 311.39048767 C440.9129172 314.67051809 440.91929729 317.95039626 440.921875 321.23046875 C440.92354675 322.34696808 440.92521851 323.46346741 440.92694092 324.61380005 C440.92844399 341.34109058 440.44205562 357.70043834 437.671875 374.23046875 C437.51501221 375.2062085 437.35814941 376.18194824 437.1965332 377.18725586 C435.48844669 387.29070919 432.05112221 393.46583984 424.44140625 400.40625 C415.5357475 406.27217755 404.87751521 407.93734145 394.61328125 410.0859375 C392.97548626 410.43572596 391.33786995 410.78635193 389.70042419 411.13777161 C385.42073055 412.05416807 381.13892601 412.96027057 376.85650635 413.86383057 C371.63700666 414.96687374 366.41983233 416.0808526 361.20261288 417.19462299 C357.14840272 418.06011451 353.09379041 418.92351273 349.03773499 419.78031921 C347.57406501 420.090764 346.11039612 420.40121395 344.64672852 420.71166992 C343.36895035 420.98162277 342.09117218 421.25157562 340.77467346 421.52970886 C337.66072886 422.17892598 337.66072886 422.17892598 334.671875 423.23046875 C333.24489464 425.56469735 333.24489464 425.56469735 331.9921875 428.49609375 C331.48187988 429.6042041 330.97157227 430.71231445 330.44580078 431.85400391 C329.90165527 433.0507373 329.35750977 434.2474707 328.796875 435.48046875 C324.57362255 444.56506678 320.1121782 453.345354 314.796875 461.85546875 C314.28656738 462.67563477 313.77625977 463.49580078 313.25048828 464.34082031 C310.1471416 469.20932728 306.80563362 473.55933436 302.89013672 477.81005859 C299.3130942 484.91683205 304.73238442 495.20508667 307.0390625 502.1875 C307.4795566 503.53953991 307.91933237 504.89181405 308.35842896 506.24430847 C309.51174811 509.79139749 310.67320331 513.33576411 311.83691406 516.87945557 C313.69375672 522.53794093 315.53872955 528.20030088 317.38254166 533.86304283 C318.02169961 535.82179011 318.66470186 537.77924068 319.30831909 539.73652649 C328.57340407 568.08615399 328.57340407 568.08615399 322.671875 581.23046875 C322.40117188 581.87371094 322.13046875 582.51695312 321.8515625 583.1796875 C318.30133154 590.07049011 311.68568582 594.31842529 305.59228516 598.81152344 C303.74477076 600.17660781 301.91593455 601.5634753 300.08984375 602.95703125 C277.2819133 620.21313363 252.02381878 634.18882077 225.671875 645.23046875 C225.02041504 645.51422363 224.36895508 645.79797852 223.69775391 646.09033203 C213.24125194 650.61347976 202.33517267 652.54090278 191.296875 648.73046875 C183.72265782 645.16317575 178.14284053 638.99472541 172.81640625 632.6953125 C169.85499747 629.29158037 166.76092568 626.01819031 163.671875 622.73046875 C159.53271586 618.31733542 155.44167355 613.88536054 151.4921875 609.30078125 C148.51342858 605.91292239 145.45032081 602.60084041 142.35498047 599.31933594 C139.73186307 596.52774652 137.22813053 593.71566434 134.875 590.69140625 C134.41963867 590.13098633 133.96427734 589.57056641 133.49511719 588.99316406 C132.24753206 587.44910483 131.03650903 585.87570843 129.828125 584.30078125 C125.62984944 581.54696188 123.34126673 582.18258105 118.48535156 582.81884766 C113.83594373 583.32069795 109.25845953 583.36343937 104.5859375 583.36328125 C103.67523499 583.36445953 102.76453247 583.36563782 101.82623291 583.36685181 C99.93884172 583.36707723 98.05144902 583.36504122 96.1640625 583.36083984 C93.30984148 583.35549304 90.45577868 583.36080552 87.6015625 583.3671875 C85.74218705 583.3671168 83.88281121 583.36583242 82.0234375 583.36328125 C81.12383804 583.36263168 80.22423859 583.36198212 79.29737854 583.36131287 C72.9367271 583.32326898 66.7418138 582.87892347 60.43188477 582.03588867 C56.70826826 582.29840281 55.46935933 583.72191358 52.984375 586.41796875 C51.53211788 588.34443228 50.09549864 590.28275003 48.671875 592.23046875 C46.89043881 594.27968941 45.03196919 596.25274014 43.171875 598.23046875 C39.8143032 601.87541857 36.48183859 605.54222361 33.171875 609.23046875 C28.98258961 613.89682579 24.75111497 618.52347959 20.5078125 623.140625 C18.5908094 625.22677543 16.67988092 627.31825854 14.7734375 629.4140625 C12.08701842 632.36606087 9.38179231 635.30002609 6.671875 638.23046875 C6.02347656 638.94589844 5.37507813 639.66132812 4.70703125 640.3984375 C-1.39625765 646.8892368 -8.52472136 650.29765825 -17.453125 650.91796875 C-33.8991412 651.31660972 -51.23379611 640.77859974 -65.45214844 633.21923828 C-67.39133513 632.19715263 -69.3455992 631.20990517 -71.3046875 630.2265625 C-130.28522825 600.29519834 -130.28522825 600.29519834 -139.640625 575.79296875 C-141.13583578 568.04505836 -140.20915804 561.45264888 -137.9140625 553.9765625 C-137.5182045 552.64038124 -137.5182045 552.64038124 -137.11434937 551.27720642 C-132.90770765 537.25484383 -128.27055444 523.35854873 -123.68896484 509.45532227 C-122.46823989 505.74927136 -121.26150036 502.03872992 -120.0546875 498.328125 C-119.49232895 496.63599632 -119.49232895 496.63599632 -118.91860962 494.90968323 C-118.57760223 493.85675583 -118.23659485 492.80382843 -117.88525391 491.71899414 C-117.58358307 490.80082413 -117.28191223 489.88265411 -116.97109985 488.93666077 C-115.86013943 484.26078237 -115.70141787 481.27585288 -118.19921875 477.109375 C-119.04303191 475.99498401 -119.89928729 474.88994045 -120.765625 473.79296875 C-121.6958059 472.55146132 -122.62147219 471.30656062 -123.54296875 470.05859375 C-124.01202637 469.42373047 -124.48108398 468.78886719 -124.96435547 468.13476562 C-131.9870807 458.32859721 -137.50128445 447.40743437 -143.06640625 436.73828125 C-143.45795898 435.9994873 -143.84951172 435.26069336 -144.25292969 434.49951172 C-145.328125 432.23046875 -145.328125 432.23046875 -146.08300781 429.77783203 C-147.27235091 426.10932632 -148.11618121 423.8504143 -151.64672852 422.04443359 C-154.89721883 421.0982245 -158.12063303 420.45345947 -161.453125 419.85546875 C-163.42085176 419.44708677 -165.38855418 419.03858146 -167.35571289 418.62747192 C-169.6094182 418.16263721 -171.86619853 417.71585776 -174.12402344 417.27148438 C-183.51047519 415.4107441 -192.85865704 413.36503768 -202.20892334 411.33172607 C-205.53244314 410.61531583 -208.85971823 409.91905837 -212.18798828 409.22509766 C-214.28170929 408.77699177 -216.37530214 408.32828652 -218.46875 407.87890625 C-219.88923141 407.59004547 -219.88923141 407.59004547 -221.33840942 407.29534912 C-232.17368232 404.92890728 -240.85166106 400.59719605 -247.5390625 391.6015625 C-258.26712787 373.57357296 -255.7104371 343.23696428 -255.640625 323.10546875 C-255.63979919 322.08908325 -255.63897339 321.07269775 -255.63812256 320.0255127 C-255.60754531 303.60198731 -254.90790458 287.47746875 -252.328125 271.23046875 C-252.0950061 269.74595215 -252.0950061 269.74595215 -251.85717773 268.23144531 C-250.19661826 258.35181413 -246.4744126 250.41728437 -238.328125 244.23046875 C-229.18770958 239.40929053 -219.33830292 237.38687289 -209.328125 235.27734375 C-207.71796024 234.92917795 -206.10801914 234.57997636 -204.49829102 234.22979736 C-200.30006692 233.31929164 -196.09907079 232.42231281 -191.89727783 231.52844238 C-187.61078714 230.61417841 -183.32696606 229.68758301 -179.04296875 228.76171875 C-174.23065595 227.72219029 -169.41810985 226.68388591 -164.60351562 225.65496826 C-163.50977379 225.42104874 -163.50977379 225.42104874 -162.39393616 225.18240356 C-160.42932934 224.76254054 -158.464549 224.34348972 -156.49975586 223.92449951 C-155.45311768 223.69546936 -154.40647949 223.46643921 -153.328125 223.23046875 C-152.55073975 223.07381241 -151.77335449 222.91715607 -150.97241211 222.75575256 C-149.12374404 222.35341785 -149.12374404 222.35341785 -148.0546875 220.32299805 C-147.69117188 219.49195557 -147.32765625 218.66091309 -146.953125 217.8046875 C-146.32071899 216.40657837 -146.32071899 216.40657837 -145.67553711 214.98022461 C-145.23089111 213.96968018 -144.78624512 212.95913574 -144.328125 211.91796875 C-137.11858701 196.21597414 -128.47041466 181.66857588 -118.19140625 167.78515625 C-116.34419751 165.40073268 -116.34419751 165.40073268 -115.328125 163.23046875 C-115.93289172 160.61503957 -115.93289172 160.61503957 -116.97119141 157.58178711 C-117.54771957 155.80238991 -117.54771957 155.80238991 -118.13589478 153.98704529 C-118.56708361 152.68144278 -118.99834996 151.37586588 -119.4296875 150.0703125 C-119.86826077 148.72407479 -120.30610535 147.3775995 -120.74325562 146.03089905 C-121.90220191 142.46622279 -123.06963653 138.90438655 -124.23925781 135.34320068 C-126.31236193 129.02622414 -128.37149772 122.70466159 -130.4296875 116.3828125 C-130.64937006 115.70808395 -130.86905262 115.03335541 -131.09539223 114.33818054 C-142.9734634 77.82232483 -142.9734634 77.82232483 -137.63671875 64.78515625 C-126.69039512 43.41531847 -95.01579051 28.59298773 -75.328125 17.23046875 C-74.54969238 16.7804248 -73.77125977 16.33038086 -72.96923828 15.86669922 C-63.94116562 10.71108991 -54.56262056 6.46080488 -45.015625 2.35546875 C-43.9419165 1.89043945 -42.86820801 1.42541016 -41.76196289 0.94628906 C-27.64781469 -4.98484687 -13.78266084 -9.1208785 0 0 Z " fill="#9D9D9D" transform="translate(255.328125,24.76953125)"/>
<path d="M0 0 C1.714536 1.49419968 3.42341996 2.99444168 5.12841797 4.49951172 C6.4176409 5.63057876 7.72478082 6.7411642 9.03515625 7.84765625 C12.90255623 11.11892521 16.32889994 14.54076311 19.59375 18.4140625 C21.15057293 20.25231111 22.73031567 22.04852708 24.34375 23.8359375 C32.14703683 32.56636017 38.5901571 41.78951045 44.625 51.8125 C45.26284424 52.85567383 45.26284424 52.85567383 45.91357422 53.91992188 C60.42065613 77.85855915 68.84029886 104.19432994 72.625 131.8125 C72.79700928 133.05563965 72.96901855 134.2987793 73.14624023 135.57958984 C74.01309718 142.60159754 73.91535782 149.68437526 73.9375 156.75 C73.94011841 157.54773834 73.94273682 158.34547668 73.94543457 159.16738892 C73.95041211 173.37666151 72.5684504 186.89155648 69.625 200.8125 C69.33228399 202.33443397 69.0405478 203.85655687 68.75 205.37890625 C62.06581983 238.46540809 44.44151435 269.90934619 21.69140625 294.55859375 C19.85759442 296.5588006 18.11462633 298.60593238 16.375 300.6875 C-14.42580797 335.78773426 -62.51712637 357.70623984 -108.375 362.8125 C-109.20676758 362.9060376 -110.03853516 362.9995752 -110.89550781 363.09594727 C-164.48119689 368.56176627 -218.70141683 354.07641914 -260.85546875 320.05078125 C-264.08986584 317.37301908 -267.24225633 314.60797717 -270.375 311.8125 C-270.90641602 311.34279785 -271.43783203 310.8730957 -271.98535156 310.38916016 C-278.20780673 304.87542571 -284.11517279 299.27021747 -289.375 292.8125 C-290.2641959 291.75900737 -291.1535316 290.70563272 -292.04296875 289.65234375 C-308.24147259 270.21040185 -319.85786825 248.55356353 -328.375 224.8125 C-328.64586426 224.07193359 -328.91672852 223.33136719 -329.19580078 222.56835938 C-334.10849231 208.9493692 -336.48309717 195.13654044 -338.375 180.8125 C-338.4795752 180.07322266 -338.58415039 179.33394531 -338.69189453 178.57226562 C-341.13588597 159.66740158 -340.16956631 139.4512188 -336.375 120.8125 C-336.17632324 119.82975098 -335.97764648 118.84700195 -335.77294922 117.83447266 C-327.39405065 77.63458849 -308.72501301 43.32758204 -280.375 13.8125 C-279.5190625 12.9153125 -278.663125 12.018125 -277.78125 11.09375 C-257.44745866 -9.75482087 -230.15876549 -27.90952494 -202.11328125 -36.3359375 C-199.89238548 -37.02660123 -197.7675553 -37.79408795 -195.6015625 -38.6328125 C-130.83163058 -63.13706961 -51.55827421 -44.30821557 0 0 Z " fill="#FEDD5B" transform="translate(481.375,190.1875)"/>
<path d="M0 0 C1.80527528 0.0755935 3.61146485 0.13223571 5.41796875 0.16796875 C24.4402155 0.58242792 39.43353525 8.91889092 53.75195312 21.11523438 C54.48542969 21.7365625 55.21890625 22.35789063 55.97460938 22.99804688 C64.34481533 30.70702269 70.38735843 41.29001665 73.75195312 52.11523438 C74.04972656 53.05625 74.3475 53.99726563 74.65429688 54.96679688 C81.41392707 80.57240066 76.05128213 107.28373003 63.03710938 129.83276367 C50.2300407 151.223982 31.08000205 168.7248572 11.75195312 184.11523438 C10.49146584 185.14219766 9.23245376 186.17097321 7.97460938 187.20117188 C1.14462744 192.79150757 -5.72801135 198.30723837 -12.74243164 203.66455078 C-17.64067898 207.40574979 -22.45317041 211.24296757 -27.24804688 215.11523438 C-28.48747398 216.10371154 -29.72707051 217.0919763 -30.96679688 218.08007812 C-39.73003842 225.09427327 -48.14246785 232.35113794 -56.24804688 240.11523438 C-57.20453125 241.01886719 -58.16101563 241.9225 -59.14648438 242.85351562 C-72.49821791 255.7751513 -83.94143138 271.09325035 -89.24804688 289.11523438 C-89.54582031 290.07300781 -89.84359375 291.03078125 -90.15039062 292.01757812 C-96.30578993 314.51173318 -91.52743149 340.02510302 -80.24804688 360.11523438 C-77.85827541 364.00076984 -75.14354226 367.59319272 -72.24804688 371.11523438 C-71.58160156 371.96988281 -70.91515625 372.82453125 -70.22851562 373.70507812 C-61.16792996 384.73147133 -48.24963437 392.06394042 -35.36523438 397.70507812 C-32.24804688 399.11523438 -32.24804688 399.11523438 -29.24804688 401.11523438 C-71.61570629 398.13621826 -112.02230415 378.7481489 -143.04101562 350.13476562 C-144.9628684 348.3761853 -146.92452177 346.70703663 -148.93554688 345.05273438 C-152.79862185 341.75433161 -155.97628973 337.98766568 -159.24804688 334.11523438 C-160.48554688 332.72691406 -160.48554688 332.72691406 -161.74804688 331.31054688 C-169.24029209 322.84169919 -175.4921544 313.840776 -181.24804688 304.11523438 C-181.97725342 302.89078613 -181.97725342 302.89078613 -182.72119141 301.64160156 C-208.68542112 257.22087121 -216.34923044 203.18572129 -203.94042969 153.28076172 C-194.3194302 116.61738574 -176.11220607 86.55976693 -150.24804688 59.11523438 C-149.55839844 58.38304687 -148.86875 57.65085938 -148.15820312 56.89648438 C-110.382734 17.96225853 -53.65561545 -2.26191606 0 0 Z " fill="#4079A7" transform="translate(356.248046875,146.884765625)"/>
<path d="M0 0 C4.64730311 2.78838187 8.17346415 6.06610257 11.94921875 9.94140625 C13.8029314 11.80218067 15.69805317 13.53698157 17.6875 15.25 C21.27953082 18.34294239 24.77288888 21.5294138 28.25 24.75 C28.80703613 25.2658667 29.36407227 25.7817334 29.93798828 26.31323242 C31.07119081 27.3628861 32.20432875 28.4126095 33.33740234 29.46240234 C35.90513153 31.83708053 38.4830927 34.20052051 41.0625 36.5625 C41.55186035 37.01061035 42.0412207 37.4587207 42.54541016 37.92041016 C43.53268749 38.82441138 44.51999214 39.72838278 45.50732422 40.63232422 C47.02814876 42.02579152 48.54747324 43.42087751 50.06640625 44.81640625 C54.67073948 49.04523476 59.28276595 53.26403086 63.9375 57.4375 C68.90238091 61.89397711 73.80134952 66.41948062 78.69921875 70.94921875 C85.4078422 77.15316761 92.1346369 83.33686793 98.9375 89.4375 C103.90238091 93.89397711 108.80134952 98.41948062 113.69921875 102.94921875 C121.20777607 109.89292427 128.75285967 116.79379325 136.37109375 123.6171875 C138.31545825 125.37953868 140.24331775 127.15349773 142.16015625 128.9453125 C142.70865234 129.45634521 143.25714844 129.96737793 143.82226562 130.49389648 C144.9362274 131.53539887 146.04566143 132.58176627 147.15039062 133.63305664 C150.54548176 136.8207714 154.01750121 139.33597166 157.9375 141.875 C160.34375 143.74609375 160.34375 143.74609375 162 146 C162.85633369 154.18382539 160.07479465 162.57605263 155 169 C145.23532937 179.78745234 132.6229516 181.99153225 118.94140625 184.85546875 C117.30361126 185.20525721 115.66599495 185.55588318 114.02854919 185.90730286 C109.74885555 186.82369932 105.46705101 187.72980182 101.18463135 188.63336182 C95.96513166 189.73640499 90.74795733 190.85038385 85.53073788 191.96415424 C81.47652772 192.82964576 77.42191541 193.69304398 73.36585999 194.54985046 C71.90219001 194.86029525 70.43852112 195.1707452 68.97485352 195.48120117 C67.69707535 195.75115402 66.41929718 196.02110687 65.10279846 196.29924011 C61.98885386 196.94845723 61.98885386 196.94845723 59 198 C57.57301964 200.3342286 57.57301964 200.3342286 56.3203125 203.265625 C55.55485107 204.92779053 55.55485107 204.92779053 54.77392578 206.62353516 C54.22978027 207.82026855 53.68563477 209.01700195 53.125 210.25 C48.90174755 219.33459803 44.4403032 228.11488525 39.125 236.625 C38.61469238 237.44516602 38.10438477 238.26533203 37.57861328 239.11035156 C34.4752666 243.97885853 31.13375862 248.32886561 27.21826172 252.57958984 C23.6412192 259.6863633 29.06050942 269.97461792 31.3671875 276.95703125 C31.8076816 278.30907116 32.24745737 279.6613453 32.68655396 281.01383972 C33.83987311 284.56092874 35.00132831 288.10529536 36.16503906 291.64898682 C38.02188172 297.30747218 39.86685455 302.96983213 41.71066666 308.63257408 C42.34982461 310.59132136 42.99282686 312.54877193 43.63644409 314.50605774 C52.90152907 342.85568524 52.90152907 342.85568524 47 356 C46.59394531 356.96486328 46.59394531 356.96486328 46.1796875 357.94921875 C42.62945654 364.84002136 36.01381082 369.08795654 29.92041016 373.58105469 C28.07289576 374.94613906 26.24405955 376.33300655 24.41796875 377.7265625 C1.6100383 394.98266488 -23.64805622 408.95835202 -50 420 C-50.65145996 420.28375488 -51.30291992 420.56750977 -51.97412109 420.85986328 C-62.43062306 425.38301101 -73.33670233 427.31043403 -84.375 423.5 C-91.94921718 419.932707 -97.52903447 413.76425666 -102.85546875 407.46484375 C-105.81687753 404.06111162 -108.91094932 400.78772156 -112 397.5 C-116.13915914 393.08686667 -120.23020145 388.65489179 -124.1796875 384.0703125 C-127.15844642 380.68245364 -130.22155419 377.37037166 -133.31689453 374.08886719 C-135.94001193 371.29727777 -138.44374447 368.48519559 -140.796875 365.4609375 C-145.19552333 359.60557808 -145.19552333 359.60557808 -151.51171875 356.4765625 C-154.25107 356.72039556 -154.25107 356.72039556 -157.1796875 357.30078125 C-166.37150007 358.98312731 -178.82466394 361.21997004 -187.42724609 356.734375 C-191.71753552 353.56450413 -195.19622787 349.728115 -198.6015625 345.64404297 C-200.24562358 343.71123792 -202.03553754 342.10236874 -204 340.5 C-208.58189235 336.55837208 -212.95533415 332.39263874 -217.36450195 328.26049805 C-221.71459335 324.18787604 -226.10862159 320.171464 -230.55078125 316.19921875 C-234.87102366 312.31995802 -239.13936557 308.38379033 -243.41503906 304.45556641 C-246.19146172 301.90580795 -248.97092334 299.35936495 -251.75 296.8125 C-252.76563792 295.88152451 -253.78126416 294.95053628 -254.796875 294.01953125 C-255.88742187 293.01986328 -255.88742187 293.01986328 -257 292 C-253.05125851 290.68375284 -251.62585489 291.67372698 -247.75 293.125 C-237.41504515 296.78656384 -226.75132786 298.94170098 -216 301 C-214.96335205 301.20351074 -214.96335205 301.20351074 -213.90576172 301.41113281 C-191.70434286 305.5779336 -167.10604635 303.74910774 -145 300 C-144.30680664 299.88253418 -143.61361328 299.76506836 -142.89941406 299.64404297 C-138.88425524 298.93201042 -134.94696312 298.02052529 -131 297 C-129.75347656 296.68675781 -128.50695312 296.37351562 -127.22265625 296.05078125 C-93.53963487 287.12004799 -64.64679451 269.42492556 -39.25 245.9375 C-38.63584229 245.37192383 -38.02168457 244.80634766 -37.38891602 244.22363281 C-24.16696073 231.83774292 -12.91168812 216.73412156 -4 201 C-3.65549805 200.40912598 -3.31099609 199.81825195 -2.95605469 199.20947266 C9.55338071 177.64051341 16.7960014 154.4903348 21 130 C21.29040161 128.35668701 21.29040161 128.35668701 21.58666992 126.68017578 C23.11446618 117.21773949 23.35826216 107.9327723 23.3125 98.375 C23.31067719 97.58286102 23.30885437 96.79072205 23.30697632 95.97457886 C23.25967657 83.74643865 22.62613699 71.97762287 20 60 C19.82307617 59.14986328 19.64615234 58.29972656 19.46386719 57.42382812 C15.84157609 40.19448497 10.31969022 24.36829113 2.89550781 8.42163086 C2.52006836 7.61346924 2.14462891 6.80530762 1.7578125 5.97265625 C1.24951904 4.89383179 1.24951904 4.89383179 0.73095703 3.79321289 C0 2 0 2 0 0 Z " fill="#8B8B8B" transform="translate(531,250)"/>
<path d="M0 0 C1.714536 1.49419968 3.42341996 2.99444168 5.12841797 4.49951172 C6.4176409 5.63057876 7.72478082 6.7411642 9.03515625 7.84765625 C12.90255623 11.11892521 16.32889994 14.54076311 19.59375 18.4140625 C21.15057293 20.25231111 22.73031567 22.04852708 24.34375 23.8359375 C32.14703683 32.56636017 38.5901571 41.78951045 44.625 51.8125 C45.26284424 52.85567383 45.26284424 52.85567383 45.91357422 53.91992188 C60.42065613 77.85855915 68.84029886 104.19432994 72.625 131.8125 C72.79700928 133.05563965 72.96901855 134.2987793 73.14624023 135.57958984 C74.01309718 142.60159754 73.91535782 149.68437526 73.9375 156.75 C73.94011841 157.54773834 73.94273682 158.34547668 73.94543457 159.16738892 C73.95041211 173.37666151 72.5684504 186.89155648 69.625 200.8125 C69.33228399 202.33443397 69.0405478 203.85655687 68.75 205.37890625 C62.06581983 238.46540809 44.44151435 269.90934619 21.69140625 294.55859375 C19.85759442 296.5588006 18.11462633 298.60593238 16.375 300.6875 C-14.42580797 335.78773426 -62.51712637 357.70623984 -108.375 362.8125 C-109.20676758 362.9060376 -110.03853516 362.9995752 -110.89550781 363.09594727 C-164.48119689 368.56176627 -218.70141683 354.07641914 -260.85546875 320.05078125 C-264.08986584 317.37301908 -267.24225633 314.60797717 -270.375 311.8125 C-270.90641602 311.34279785 -271.43783203 310.8730957 -271.98535156 310.38916016 C-278.20780673 304.87542571 -284.11517279 299.27021747 -289.375 292.8125 C-290.2641959 291.75900737 -291.1535316 290.70563272 -292.04296875 289.65234375 C-308.24147259 270.21040185 -319.85786825 248.55356353 -328.375 224.8125 C-328.64586426 224.07193359 -328.91672852 223.33136719 -329.19580078 222.56835938 C-334.10849231 208.9493692 -336.48309717 195.13654044 -338.375 180.8125 C-338.4795752 180.07322266 -338.58415039 179.33394531 -338.69189453 178.57226562 C-341.13588597 159.66740158 -340.16956631 139.4512188 -336.375 120.8125 C-336.17632324 119.82975098 -335.97764648 118.84700195 -335.77294922 117.83447266 C-327.39405065 77.63458849 -308.72501301 43.32758204 -280.375 13.8125 C-279.5190625 12.9153125 -278.663125 12.018125 -277.78125 11.09375 C-257.44745866 -9.75482087 -230.15876549 -27.90952494 -202.11328125 -36.3359375 C-199.89238548 -37.02660123 -197.7675553 -37.79408795 -195.6015625 -38.6328125 C-130.83163058 -63.13706961 -51.55827421 -44.30821557 0 0 Z M-285.6953125 26.41015625 C-300.85122861 44.41799206 -312.4054763 64.11469696 -321.375 85.8125 C-321.83648437 86.91335938 -322.29796875 88.01421875 -322.7734375 89.1484375 C-341.840661 138.3345873 -337.25384281 193.08310277 -317.03955078 240.9765625 C-308.49440992 260.03355722 -296.59716587 277.2124149 -282.4609375 292.5390625 C-280.5227745 294.6514424 -278.66476729 296.81248072 -276.8125 299 C-273.29779064 303.00884083 -269.48549466 306.4250876 -265.375 309.8125 C-264.60953857 310.45445312 -264.60953857 310.45445312 -263.82861328 311.109375 C-236.39382932 334.05970275 -205.4432216 348.90374955 -170.375 355.8125 C-169.40949219 356.00376465 -168.44398438 356.1950293 -167.44921875 356.39208984 C-166.00482422 356.66786865 -166.00482422 356.66786865 -164.53125 356.94921875 C-163.22897461 357.1980481 -163.22897461 357.1980481 -161.90039062 357.4519043 C-159.35550278 357.81528397 -156.9419153 357.87609734 -154.375 357.8125 C-157.18725493 355.93766338 -159.99360429 354.61358243 -163.07470703 353.24951172 C-171.79596725 349.35415504 -178.99829178 344.93677645 -186.375 338.8125 C-187.03757812 338.30074219 -187.70015625 337.78898437 -188.3828125 337.26171875 C-197.82927388 329.74267438 -203.86611311 319.35070551 -209.375 308.8125 C-209.7875 308.02746094 -210.2 307.24242187 -210.625 306.43359375 C-219.4613974 287.13849162 -220.4462878 261.7432478 -213.375 241.8125 C-206.8916962 225.53746132 -196.47909933 212.25816814 -184.375 199.8125 C-183.90271973 199.31975586 -183.43043945 198.82701172 -182.94384766 198.31933594 C-177.35522554 192.493692 -171.56211431 187.15105984 -165.25 182.12109375 C-162.67018198 180.04952793 -160.14813637 177.92987094 -157.63647461 175.77734375 C-151.27223043 170.32363368 -144.72604834 165.17043691 -138.05615234 160.09814453 C-129.0179477 153.18626744 -120.12980632 146.07923726 -111.375 138.8125 C-110.38242187 137.99523437 -109.38984375 137.17796875 -108.3671875 136.3359375 C-79.96427961 112.77338238 -53.68216457 85.87360644 -48.375 47.8125 C-46.67758041 25.36945934 -49.18954389 2.63700757 -64.25170898 -15.1105957 C-69.90814152 -21.34825811 -76.27799162 -26.66583383 -83.375 -31.1875 C-84.055625 -31.62400879 -84.73625 -32.06051758 -85.4375 -32.51025391 C-97.65613693 -40.13345719 -108.07978765 -42.90473756 -122.375 -43.1875 C-124.23438614 -43.26535932 -126.09376089 -43.3434913 -127.953125 -43.421875 C-188.67145986 -45.28367888 -245.5577725 -18.5249685 -285.6953125 26.41015625 Z M-89.375 -38.1875 C-87.09427893 -35.68677368 -84.75729706 -34.14965357 -81.8125 -32.5 C-64.38964932 -22.17816561 -53.80048565 -7.25773521 -47.875 11.9375 C-45.91514792 19.79727043 -45.99271768 27.88262036 -45.9375 35.9375 C-45.92203125 37.81332764 -45.92203125 37.81332764 -45.90625 39.72705078 C-46.01949133 51.70389471 -47.9345561 62.99969719 -53.0625 73.875 C-53.40990234 74.63103516 -53.75730469 75.38707031 -54.11523438 76.16601562 C-64.85986452 99.02981419 -82.76995105 118.821168 -102.46875 134.47265625 C-105.79988935 137.15458161 -109.02169247 139.94614365 -112.25 142.75 C-118.23373232 147.91954701 -124.40914444 152.76904886 -130.70996094 157.54296875 C-138.84666048 163.74690389 -146.84530061 170.13426255 -154.73828125 176.64453125 C-156.4972351 178.09078219 -158.26554984 179.5257222 -160.04296875 180.94921875 C-166.93973446 186.49250663 -173.48057917 192.34354194 -179.90283203 198.42382812 C-181.18390754 199.63224562 -182.47941404 200.82532849 -183.77734375 202.015625 C-202.68019327 219.92718585 -214.98454004 243.21738557 -215.75 269.375 C-215.63797212 294.25730014 -206.07253661 315.57512242 -189.1875 333.5 C-180.10634686 342.30212329 -168.95621128 348.82854589 -157.375 353.8125 C-156.25609375 354.29976562 -155.1371875 354.78703125 -153.984375 355.2890625 C-120.63520059 367.77756087 -77.59356034 354.30933725 -46.34887695 340.40917969 C-29.31162506 332.45456629 -13.60396299 321.79726008 0.19921875 309.05078125 C1.80660962 307.56763315 3.43428227 306.10614711 5.08203125 304.66796875 C38.71345506 275.27357471 58.36813491 234.15251191 66.625 190.8125 C66.75777344 190.12397949 66.89054687 189.43545898 67.02734375 188.72607422 C68.91639065 178.30713157 68.82493023 167.74018152 68.875 157.1875 C68.8804483 156.4903891 68.88589661 155.7932782 68.89151001 155.07504272 C69.192782 103.23261568 47.20000996 54.78718248 11.625 17.8125 C11.15416992 17.31975586 10.68333984 16.82701172 10.19824219 16.31933594 C-15.69775896 -10.66549497 -50.11895308 -29.28400796 -86.375 -38.1875 C-87.365 -38.1875 -88.355 -38.1875 -89.375 -38.1875 Z " fill="#F9F9F8" transform="translate(481.375,190.1875)"/>
<path d="M0 0 C4.80841875 3.29166921 8.82681994 7.63043394 10.74609375 13.1953125 C12.0079119 20.83093003 10.94229913 26.64934518 6.6015625 33.0625 C2.62868041 37.62922341 -2.56278432 40.77174113 -8.63671875 41.46875 C-15.69906201 41.73031827 -20.67885201 40.68227768 -26.25390625 36.1953125 C-28.2453101 34.01401928 -29.81849258 31.77213944 -31.25390625 29.1953125 C-31.61871094 28.57269531 -31.98351562 27.95007813 -32.359375 27.30859375 C-34.36506892 22.57025134 -33.97986087 16.84183061 -32.63671875 11.9453125 C-29.83880558 5.60667735 -24.71764197 1.29178412 -18.87890625 -2.2421875 C-12.06750567 -3.70177334 -6.10764748 -3.51466233 0 0 Z " fill="#FFFEFC" transform="translate(317.25390625,470.8046875)"/>
<path d="M0 0 C6.96364881 3.78706607 10.82321159 8.45010351 13.31640625 15.9296875 C14.3106984 23.6709621 12.63446655 29.46445985 8.31640625 35.9296875 C5.87890625 38.3671875 5.87890625 38.3671875 3.31640625 39.9296875 C2.45015625 40.5071875 1.58390625 41.0846875 0.69140625 41.6796875 C-4.93821648 43.76473295 -10.49758877 44.03423468 -16.21875 42.05078125 C-21.51704594 39.37067496 -24.8174967 36.09588764 -27.68359375 30.9296875 C-28.11671875 30.1665625 -28.54984375 29.4034375 -28.99609375 28.6171875 C-30.72392337 21.86294442 -30.38343413 15.75136231 -26.875 9.67578125 C-20.72359734 0.66044685 -10.54647577 -4.20630911 0 0 Z " fill="#FCFDFD" transform="translate(398.68359375,184.0703125)"/>
</svg>
